<?xml version="1.0" standalone="no"?>
<!DOCTYPE svg PUBLIC "-//W3C//DTD SVG 20010904//EN"
 "http://www.w3.org/TR/2001/REC-SVG-20010904/DTD/svg10.dtd">
<svg version="1.0" xmlns="http://www.w3.org/2000/svg"
 width="512.000000pt" height="512.000000pt" viewBox="0 0 512.000000 512.000000"
 preserveAspectRatio="xMidYMid meet">
<metadata>
Created by potrace 1.11, written by Peter Selinger 2001-2013
</metadata>
<g transform="translate(0.000000,512.000000) scale(0.100000,-0.100000)"
fill="#000000" stroke="none">
<path d="M2358 4605 c-2 -3 -40 -7 -84 -10 -84 -6 -146 -13 -154 -16 -3 -1 -8
-1 -11 -1 -25 3 -250 -63 -292 -85 -63 -34 -254 -221 -320 -314 -26 -37 -84
-127 -128 -200 -158 -261 -201 -308 -392 -436 -135 -91 -216 -163 -236 -211
-8 -18 -29 -37 -58 -51 -99 -48 -250 -157 -328 -235 -97 -99 -165 -210 -211
-344 -30 -87 -34 -113 -40 -247 -10 -216 -10 -763 -1 -810 54 -284 313 -598
637 -772 166 -90 481 -196 811 -272 108 -25 343 -59 454 -66 267 -16 386 -20
695 -20 320 0 529 7 595 19 11 2 51 7 89 11 38 4 79 9 90 11 32 5 158 25 181
29 69 10 124 19 235 42 69 13 134 26 146 29 11 2 65 18 120 34 54 17 105 32
112 32 6 1 12 5 12 10 0 4 7 8 15 8 24 0 173 78 229 120 103 76 242 238 331
385 60 99 79 143 140 319 l48 139 1 296 c0 163 -3 334 -6 381 -13 151 -74 323
-164 460 -60 91 -230 252 -396 375 -15 11 -29 31 -31 45 -15 114 -169 238
-385 311 -68 23 -352 102 -407 113 -5 2 -35 8 -65 14 -161 34 -335 56 -525 67
-49 3 -112 8 -140 10 -56 6 -204 14 -375 20 -97 4 -424 6 -645 4 -101 -1 -94
-7 -91 69 2 37 4 74 4 82 3 20 51 74 79 89 27 14 172 48 238 56 28 4 61 8 75
11 109 19 587 24 860 10 210 -11 223 -12 320 -20 47 -4 112 -9 145 -11 32 -2
71 -7 86 -10 31 -7 88 14 137 52 49 37 73 98 74 186 1 89 -20 146 -65 173 -46
27 -72 34 -207 49 -36 4 -67 8 -70 10 -3 2 -36 6 -75 10 -38 3 -83 8 -100 10
-40 5 -125 14 -210 21 -38 3 -95 8 -125 10 -77 7 -616 14 -622 9z"/>
</g>
</svg>
